<?xml version="1.0" encoding="utf-8"?>
<!-- Generator: Adobe Illustrator 25.4.1, SVG Export Plug-In . SVG Version: 6.00 Build 0)  -->
<svg version="1.1" xmlns="http://www.w3.org/2000/svg" xmlns:xlink="http://www.w3.org/1999/xlink" x="0px" y="0px"
	 viewBox="0 0 1920 1080" style="enable-background:new 0 0 1920 1080;" xml:space="preserve">
<style type="text/css">
	.st0{fill:none;stroke:#DF4807;stroke-width:4;stroke-miterlimit:10;}
</style>
<g id="Ebene_2">
	<path class="st0" d="M969,302.68c0.13-4.85,35.11-45.19,63.96,2.3c1.54,2.54,1.23,8.7,1.2,9.19c-0.71,11.21,2.64,17.62,3.68,19.84
		c2.23,4.76,4.15,10.94,4.15,10.94c0.93,5.09,6.1,18.89-5.18,31.07l-25.38,17.15c0,0-14.72,6.02-23.66-1.51L964.28,378
		c0,0-13.4-9.19-4.98-31.53l4.09-12.38c0,0,3.56-5.35,4.48-26.43C967.87,307.46,968.99,302.88,969,302.68z"/>
</g>
<g id="Ebene_3">
	<path class="st0" d="M810.91,727.32c0,0,17.02-3.4,23.49,35.74c0,0-2.04,6.13,7.15,16c0,0,37.11,33.7,17.7,64.34
		c0,0-7.49,14.3-36.77,19.4l-8.54-0.89c0,0-22.44-8.99-23.12-54.94c0,0-0.68-11.23-2.04-16.68c0,0-20.09-20.77-13.96-42.89
		c0,0,3.48-13.73,22.81-16.34l-33.36-87.15h-1.36l-3.23-8.85l-7.91-20.17v-1.19l1.36-0.94l0.68-5.45c0,0-0.17-0.94,5.87-2.72
		c0,0,1.96,0.17,3.06,3.4c0,0,1.36,0.34,2.47,0.34c0,0,1.53,1.79,1.79,3.15l9.62,26.13l-0.09,2.04L810.91,727.32z"/>
</g>
<g id="Ebene_4">
	<path class="st0" d="M505.47,792.77c0,0-2.55-14.3-7.91-16.85l-22.21-22.72c0,0,9.45,2.81,13.79,1.02c0,0,4.6-0.26,5.87-5.11
		c0,0,0.26-2.55-1.53-3.32c0,0-5.62-5.36-9.96-14.55c0,0-3.6-15.65-6.47-24.77c0,0-3.83-16.26-26.47-19.06h-11.4l-6.72-1.62
		c0,0-2.04-9.7-6.13-9.96c-4.09-0.26-1.53,0-1.53,0s-2.3,0-6.89,1.02c0,0-15.83,5.62-22.21,4.85l-30.89,3.57l-3.32,1.53
		c0,0-1.53,0-2.68-0.77c0,0-6.77-6.13-8.55-11.74c0,0,1.53-13.02-8.94-28.09c0,0-9.96-13.53-35.23-22.47c0,0-8.68-2.3-15.06,3.57
		c0,0,1.02,2.3-3.57,0.77l-7.91-7.4c0,0-0.77-1.53-6.13-1.53c0,0-7.66,0.26-7.91,7.15c0,0-10.72,54.64-10.72,54.13
		c0-0.51,0-0.51,0-0.51s-5.11,7.91-0.51,14.81l11.49,7.4c0,0,12,2.81,16.6-4.6l5.87-11.74l8.94-5.62l-12,29.36
		c0,0-4.6,15.83-2.3,22.98l-8.68,19.15c0,0-36.51,35.23-38.81,41.36l-3.81,6.89l-45.98,1.02l-3.06,3.57c0,0-1.02,4.6,0,6.64
		l-2.3,0.26l-5.11,4.34v9.19h4.6c0,0,103.66,41.11,139.15,42.13c0,0,33.19,8.68,96.26-4.09c0,0,19.15-1.02,127.4-49.28v-21.96
		L505.47,792.77z M362.23,807.15c-69.11,2.38-95.32-7.15-95.32-7.15c-1.53-1.36,22.64-19.06,22.64-19.06
		c11.57-8.68,34.72-16.68,34.72-16.68c28.43,6.3,80.68-10.72,80.68-10.72c1.19,0,10.76,5.5,15.32,6.96
		c1.35,0.43,1.77,0.54,1.87,0.55c0,0-0.01,0-0.01-0.01c-0.15-0.08,0.12,0.02,0.01,0.01c5.97,3.22,16.85,9.17,16.85,9.17
		c29.28,23.15,29.11,24.34,29.11,24.34C428.28,804.6,362.23,807.15,362.23,807.15z"/>
</g>
<g id="Ebene_5">
	<path class="st0" d="M0.02,748.43c0,0,39.15-3.74,80.68,17.02c0,0,70.13,27.91,85.45,119.49l-3.06,44.94l5.45,10.89
		c0,0,0.68,11.91-10.89,9.87c0,0-7.83,41.87-48,84.09c0,0-24.51,27.4-51.4,45.36H0.02V748.43z"/>
</g>
<g id="Ebene_6">
	<path class="st0" d="M898.23,834.13c0,0-0.51-5.28,11.49-9.11c0,0,5.45-3.61,46.04-0.68c0,0,15.91,2.98,17.45,10.13l0.17,12.09
		c-2.72,2.64-5.79,6.81-5.79,6.81c-2.58,1.67-3.84,4.03-10.04,3.15c0,0-5.45,0.34-7.57-2.21c0,0-3.23-4.09-7.49-5.15
		c-0.46-0.12-0.53-0.22-1.02-0.3c-3.57-0.6-7.91-0.85-12.97,0.21c-0.16,0.03-0.32,0-0.48,0.04c-1.18,0.31-7.66,1.94-10.04,4.26
		c-2.41,2.34-7.58,2.8-10.81,0.71c0,0-2.07-1.39-4.17-2.84c-2.73-1.88-4.34-6.89-4.34-6.89S897.33,836.43,898.23,834.13z"/>
</g>
<g id="Ebene_7">
	<path class="st0" d="M1044.06,859.79c0,0,16.21,4.64,31.66,0v-3.96c0,0,1.66-8.43,6.51-11.11l-0.24-26.23c0,0,0.54-1.34-3.72-2.92
		l3.49-15.83c0.14-1.45,1.27-3.68-1.74-3.79c0,0-2.3-3.45-3.79-1.53c-1.86,2.39-4.04,16.03-4.94,19.7c-0.14,0.57-2.7,1.13-3.02,0.17
		v-1.24l2.6-18c-0.34-1.31-3.24-5.65-6.09-0.5l-2.81,18.04c0.01,0.08-0.05,1.93-0.21,1.32c-0.22-0.86,0-1.57,0-1.57l-0.02-1.25
		l-0.28-15.77c0,0-1.69-4.68-6.29-0.98l-0.14,14.77l0.21,6.01l-2.16-18.35c-0.01-0.08-0.22-2.39-0.28-2.62
		c-0.16-0.58-1.86-4.18-5.3,1.76l2.13,18.89l-1.02,0.09l-4.08,0.1l-4.01-18.4c0,0-2.5-4.73-4.6-1.4c-0.26,0.42-0.36,1.17-0.26,1.65
		l4.34,19.23c0.37,0.93-1.07,0.63-1.07,0.63c-0.25,0.09-0.07,3.03-0.07,3.03c0.3,0.53-1.15,0.89-1.15,0.89l-5.74,2.89l0.21,20.68
		c0,0,4.41,1.26,6.68,2.34c2.1,1,3.75,3.21,4.21,4.17c0.2,0.41,1.24,1.96,0.81,2.34L1044.06,859.79z"/>
</g>
<g id="Ebene_8">
	<path class="st0" d="M1201.21,811.53c0,0-2.55,4.09-2.04,7.66c0,0,0.38,9.7-1.4,11.36c0,0-3.96,13.4-9.06,18.77v6.38
		c0,0,0.77,4.6-5.49,2.55l-6-2.04c0,0-1.91-1.79-3.83,0h-9.45l-12-6.38c0,0-3.19-6.38,4.21-4.72l4.72-0.89c0,0,0.26-8.81,0.26-9.83
		c0,0,0.38-8.55,3.32-11.87l2.94-6.64l-1.4-0.26c0,0-3.83,5.49-6.51,3.57c0,0-4.85,1.15-4.72-5.87c0,0,2.17-4.85,4.47-5.49
		l-1.02-1.4c0,0,13.02-15.7,15.83-17.87l0.38-2.04c0,0,8.04-3.96,9.83-4.98l-1.53-3.7c0,0-1.4-2.43-0.32-4.91l3.51-3.38
		c0,0-0.51-5.23,1.4-8.68c0,0,2.17-3.96,6.13-6.51c0,0,8.11-1.98,11.62-0.06c0,0,6.94,4.22,10.28,8.11
		c0.59,0.69,1.78,3.87,1.85,4.09c2.3,6.51-0.77,34.85-0.77,34.85c-0.51,1.34-0.52,5.1-1.35,7.15c-0.17,0.43,0.52,9.07-1.91,10.22
		c0,0-4.6,3.96-7.34,0.77c0,0-0.99-0.6-1.91-2.55c-0.09-0.18-1.49-2.98-1.47-3.19C1202.68,811.28,1201.21,811.53,1201.21,811.53z"/>
</g>
<g id="Ebene_9">
	<polygon class="st0" points="1394.16,1008.14 1372.91,1043.48 1371.26,1045.36 1259.36,1038.27 1257.26,1034.1 1286.32,997.56 
		1319.09,999.4 1321.13,997.96 1357.21,999.06 1358.9,1002.33 1393.55,1004.26 	"/>
</g>
<g id="Ebene_10">
	<path class="st0" d="M1621.6,794.81c-1.11-3.4-4.55-2.47-4.55-2.47s-19.57-6.21-22.51-7.23c-0.1-0.03-4.96-1.75-5.11-1.79
		c-3.17-0.71-12.78,0-12.78,0l-6.7-11.89l0.71-2.41l-1.02-2.81l-16.47-24.89c-1.91-2.37-7.28-7.28-7.28-7.28l-37.15-8.43
		c-8.68,0-11.11,2.04-11.11,2.04s-17.96,28.97-18.38,30c-0.98,2.39-0.25,3.45-0.25,3.45l-8.68,13.66c-1.82,1.42-2.3,3.7-2.3,3.7
		c-5.36,1.53-8.68,8.43-8.68,8.43l-27.32-0.09v1.53v15.15l5.36,7.74c-8.77,1.96,1.87,6.47,1.87,6.47l7.23,13.11
		c-7.06,3.49,2.38,7.06,2.38,7.06l9.87,17.19c0,0,30.81,10.72,32.34,11.74c0.05,0.03,0.21,0.06,0.47,0.09
		c7.35,0.63,95.1-3.66,95.1-3.66l11.23-17.96c5.26-1.1,4.75-3.81,3.92-5.98c-0.3-0.77-0.35-1.61,0-2.36l6.47-13.45
		c7.91-0.26,4.13-5.96,4.13-5.96l7.79-17.11C1623.38,798.51,1621.6,794.81,1621.6,794.81z M1532.49,741.57
		c1.21,0.12,0.64,1.79,0.64,1.79l-6.07,9.19l-9.38-14.17C1517.68,738.38,1530.44,741.38,1532.49,741.57z M1517.3,773.23l-6.64,12.13
		l-29.95,0.68c0,0-1.61-2.86-4.26-5.15c0,0,0.89-3.32,0-4.09l8.3-12.13c0,0,2.87-1.43,3.38-2.7l13.98-25c0,0,2.95-4.18,5.49,1.53
		c0.06,0.13,0.13,0.26,0.2,0.38l14.61,21.84l-4.98,9.06C1517.43,769.79,1516.28,772.47,1517.3,773.23z M1529.68,783.32h-11.23
		l4.6-7.53c1.53,0.64,3.19-1.28,3.19-1.28l2.78-2.55l4.06,5.68L1529.68,783.32z M1549.47,783.32c-5.74-8.3-7.66-6.38-8.43-6.38
		c-0.77,0-2.81-3.32-2.81-3.32l-6-9.57l7.04-11.93c0.75-1.48,3.66-7.3,3.66-7.3s2.69,3.13,4.24,5.05
		c3.53,4.4,12.89,20.55,12.89,20.55c1.66,3.19,3.7,2.81,3.7,2.81l5.23,10.09H1549.47z"/>
</g>
<g id="Ebene_11">
	<polygon class="st0" points="1714.57,719.66 1853.64,719.32 1892.77,733.61 1891.42,870.31 1746.23,871.15 1713.72,851.23 	"/>
</g>
</svg>
