<svg id="Ebene_1" data-name="Ebene 1" xmlns="http://www.w3.org/2000/svg" viewBox="0 0 512 512">
  <defs>
    <style>
      .cls-1 {
        fill: #df4807;
      }

      .cls-2 {
        fill: #fff;
      }
    </style>
  </defs>
  <g>
    <path class="cls-1" d="M0,256V512H512V0H0Z"/>
    <path class="cls-2" d="M355.11,64V99.11l-8.78.51c-33.06,1.9-47.1,15.21-50.76,48.35-.51,4.61-.8,38.32-.8,98.3-.08,96.18-.44,114.91-2.93,131.81-9,61.51-43.15,97.28-99.47,104-4.25.52-13.9,1-21.58,1l-13.9.07V412.89l8.85-.51c33-1.83,47-15.43,50.69-49,.51-4.6.8-39.27.8-98,.08-91.65.52-115.27,2.49-129.31,4.46-31.38,15.14-56,32.33-74.46,6.29-6.81,11.19-10.46,22-16.53,14-7.9,33.35-14.19,47.76-15.73,3.44-.37,12.29-.58,19.75-.51l13.53.07Z"/>
  </g>
</svg>
